<?xml version="1.0" encoding="utf-8"?>
<!-- Generator: Adobe Illustrator 19.0.0, SVG Export Plug-In . SVG Version: 6.00 Build 0)  -->
<svg version="1.1" id="Layer_1" xmlns="http://www.w3.org/2000/svg" xmlns:xlink="http://www.w3.org/1999/xlink" x="0px" y="0px"
	 viewBox="-292 384 26 26" style="enable-background:new -292 384 26 26;" xml:space="preserve">
<title>magglass</title>
<desc>Created with Sketch.</desc>
<g id="Icons">
	<g id="magglass">
		<path id="Shape" d="M-291.1,395.1c0.6,3.9,3.8,7.1,7.9,7.9c2.8,0.5,5.5-0.1,7.5-1.5l7.4,7.7l1.4-1.2l-7.4-7.7
			c1.7-1.8,2.6-4.2,2.3-6.9c-0.4-3.9-3.5-7.2-7.5-8.1C-286.1,383.6-292,388.7-291.1,395.1z M-289.2,394.3c-0.3-4.7,3.9-8.3,8.8-7.5
			c3.6,0.6,6.4,3.5,6.6,6.9c0.3,4.7-3.9,8.3-8.8,7.5C-286.2,400.6-289,397.7-289.2,394.3z"/>
	</g>
</g>
</svg>
